# xmcd CD database file
#
# Track frame offsets:
#	150
#	15030
#	33722
#	55034
#	75427
#	94416
#	113494
#	127460
#	150429
#	178390
#	207242
#	229713
#	252465
#	272120
#	302342
#
# Disc length: 4378 seconds
#
# Revision: 0
# Processed by: cddbd v1.5.2PL0 Copyright (c) Steve Scherf et al.
# Submitted via: CDex 1.51
#
DISCID=c011180f
DTITLE=The Jolly Jazz Fools - LetThe Good Times Roll
DYEAR=2000
DGENRE=Jazz
TTITLE0=Stevedore Stomp
TTITLE1=Someday you'll be sorry
TTITLE2=Promenade aux Champs-Elysees
TTITLE3=Mecca Flat Blues
TTITLE4=As long as I live
TTITLE5=I want a little girl
TTITLE6=Tailgate Ramble
TTITLE7=Do you know what it means to Miss New Orleans
TTITLE8=Lady be good
TTITLE9=That old rugged cross
TTITLE10=The lily of the valley
TTITLE11=His eye is on the little sparrow
TTITLE12=Up a lazy river
TTITLE13=Careless love
TTITLE14=Second line
EXTD=YEAR: 2000
EXTT0=
EXTT1=
EXTT2=
EXTT3=
EXTT4=
EXTT5=
EXTT6=
EXTT7=
EXTT8=
EXTT9=
EXTT10=
EXTT11=
EXTT12=
EXTT13=
EXTT14=
PLAYORDER=
